<svg xmlns="http://www.w3.org/2000/svg" width="557.362" height="543.861" viewBox="0 0 557.362 543.861">
  <g id="dessin" transform="translate(-2925.998 10172)">
    <g id="Polygone_5" data-name="Polygone 5" transform="matrix(1, 0.017, -0.017, 1, 3080.73, -10025.02)" fill="none">
      <path d="M106.586,9.4a45,45,0,0,1,39.05,0L207.72,39.3a45,45,0,0,1,24.347,30.53l15.333,67.18a45,45,0,0,1-8.689,38.07l-42.963,53.874A45,45,0,0,1,160.565,245.9H91.657a45,45,0,0,1-35.182-16.943L13.512,175.081a45,45,0,0,1-8.689-38.07l15.333-67.18A45,45,0,0,1,44.5,39.3Z" stroke="none"/>
      <path d="M 126.1111679077148 57.71565246582031 L 70.10171508789063 84.68833923339844 L 56.26860046386719 145.2953796386719 L 95.02824401855469 193.8984375 L 157.1941223144531 193.8984375 L 195.9537200927734 145.2953796386719 L 182.1205444335938 84.68830871582031 L 126.1111679077148 57.71565246582031 M 126.1111679077148 4.946243286132813 C 132.7889404296875 4.946243286132813 139.4667053222656 6.43170166015625 145.6359252929688 9.402618408203125 L 207.7196655273438 39.30052185058594 C 220.0580902099609 45.24244689941406 229.0193328857422 56.47944641113281 232.0666656494141 69.8306884765625 L 247.4000854492188 137.0107727050781 C 250.4474182128906 150.3620300292969 247.2492523193359 164.3744506835938 238.7107543945313 175.0812683105469 L 195.7474975585938 228.9555358886719 C 187.2089996337891 239.662353515625 174.2596740722656 245.8984375 160.5650939941406 245.8984375 L 91.65725708007813 245.8984375 C 77.96266174316406 245.8984375 65.01333618164063 239.662353515625 56.47483825683594 228.9555358886719 L 13.51158142089844 175.0812683105469 C 4.97308349609375 164.3744506835938 1.774917602539063 150.3621215820313 4.822250366210938 137.0107727050781 L 20.15557861328125 69.83078002929688 C 23.20291137695313 56.47952270507813 32.16416931152344 45.24244689941406 44.50257873535156 39.30061340332031 L 106.5864105224609 9.402618408203125 C 112.7556304931641 6.43170166015625 119.4333953857422 4.946243286132813 126.1111679077148 4.946243286132813 Z" stroke="none" fill="#5edfed"/>
    </g>
    <g id="Polygone_3" data-name="Polygone 3" transform="matrix(1, 0.017, -0.017, 1, 3008.02, -10098.51)" fill="none">
      <path d="M180.288,9.4a45,45,0,0,1,39.05,0L340.525,67.763a45,45,0,0,1,24.347,30.53L394.8,229.429a45,45,0,0,1-8.689,38.071L302.249,372.662a45,45,0,0,1-35.182,16.943H132.558a45,45,0,0,1-35.182-16.943L13.512,267.5a45,45,0,0,1-8.689-38.071L34.753,98.294A45,45,0,0,1,59.1,67.764Z" stroke="none"/>
      <path d="M 199.8124237060547 57.71566772460938 L 84.69921875 113.1512451171875 L 56.26858520507813 237.7140045166016 L 135.9293518066406 337.6053466796875 L 263.695556640625 337.6053466796875 L 343.3564758300781 237.7137451171875 L 314.92578125 113.1511840820313 L 199.8124237060547 57.71566772460938 M 199.8124694824219 4.946197509765625 C 206.490234375 4.946197509765625 213.1680145263672 6.431671142578125 219.3372192382813 9.40264892578125 L 340.52490234375 67.763427734375 C 352.8633117675781 73.705322265625 361.8245239257813 84.94232177734375 364.8719177246094 98.29364013671875 L 394.8028259277344 229.4292297363281 C 397.8501281738281 242.7805328369141 394.6519165039063 256.7928466796875 386.1134033203125 267.4997253417969 L 302.2490234375 372.6623229980469 C 293.7105102539063 383.3692321777344 280.76123046875 389.6053466796875 267.0666198730469 389.6053466796875 L 132.5584106445313 389.6053466796875 C 118.8638000488281 389.6053466796875 105.9145202636719 383.3692321777344 97.37600708007813 372.6624450683594 L 13.51150512695313 267.4998168945313 C 4.973114013671875 256.7929382324219 1.77490234375 242.7805328369141 4.82220458984375 229.4293365478516 L 34.75302124023438 98.29373168945313 C 37.8004150390625 84.94244384765625 46.76162719726563 73.7054443359375 59.10000610351563 67.7635498046875 L 180.2877197265625 9.40264892578125 C 186.4569091796875 6.431671142578125 193.1346893310547 4.946197509765625 199.8124694824219 4.946197509765625 Z" stroke="none" fill="#1ed1a7"/>
    </g>
    <g id="Polygone_4" data-name="Polygone 4" transform="matrix(1, 0.017, -0.017, 1, 2935.324, -10172)" fill="none">
      <path d="M254.535,9.4a45,45,0,0,1,39.049,0L474.314,96.437a45,45,0,0,1,24.347,30.53L543.3,322.532a45,45,0,0,1-8.689,38.07L409.539,517.434a45,45,0,0,1-35.182,16.943H173.763a45,45,0,0,1-35.182-16.943L13.512,360.6a45,45,0,0,1-8.689-38.07L49.459,126.967a45,45,0,0,1,24.347-30.53Z" stroke="none"/>
      <path d="M 274.059814453125 57.71563720703125 L 99.40472412109375 141.8251037597656 L 56.26852416992188 330.81689453125 L 177.1336669921875 482.3767700195313 L 370.9860534667969 482.3766479492188 L 491.85107421875 330.81689453125 L 448.71484375 141.8250122070313 L 274.059814453125 57.71563720703125 M 274.0599060058594 4.94622802734375 C 280.7376708984375 4.94622802734375 287.4153442382813 6.431640625 293.5845336914063 9.40252685546875 L 474.3139343261719 96.43722534179688 C 486.6524047851563 102.3791198730469 495.6135864257813 113.6160583496094 498.6609802246094 126.9673461914063 L 543.2974853515625 322.5324096679688 C 546.3447265625 335.8836059570313 543.1465454101563 349.8959350585938 534.6080322265625 360.6028747558594 L 409.5394592285156 517.4337158203125 C 401.0009765625 528.140625 388.0516967773438 534.3766479492188 374.3571166992188 534.3766479492188 L 173.7625122070313 534.3767700195313 C 160.0679321289063 534.3767700195313 147.11865234375 528.140625 138.5801696777344 517.433837890625 L 13.5115966796875 360.6028747558594 C 4.97308349609375 349.8960571289063 1.77490234375 335.8836975097656 4.8221435546875 322.5324096679688 L 49.45864868164063 126.9674682617188 C 52.50592041015625 113.6161804199219 61.46722412109375 102.3791198730469 73.80557250976563 96.43734741210938 L 254.5350036621094 9.40264892578125 C 260.7042236328125 6.43170166015625 267.3821105957031 4.94622802734375 274.0599060058594 4.94622802734375 Z" stroke="none" fill="#71e8a8"/>
    </g>
  </g>
</svg>
