<svg xmlns="http://www.w3.org/2000/svg" width="400.363" height="123.568" viewBox="0 0 400.363 123.568">
  <path id="car_horizontal" d="M229.332,374.98a21.418,21.418,0,0,1,.9-4.75,24.547,24.547,0,0,1,2.34-5.03,8.7,8.7,0,0,1,3.03-3.25c.53-.32,1.15-.62,1.2-1.02.05-.37-.4-.83-.68-1.29a5.253,5.253,0,0,1-.54-3.03v-.06c0-1.43-.15-2.96.57-4.14.46-.76,1.29-1.37,1.66-2.14.53-1.09.16-2.49-.01-3.8a55.879,55.879,0,0,0-.56-5.6,2.908,2.908,0,0,1-.14-1.25,2.038,2.038,0,0,1,.88-1.07c.34-.25.73-.5.78-.7.1-.42-1.35-.6-1.88-1.2a1.419,1.419,0,0,1-.06-1.57,1.525,1.525,0,0,1,.72-.74,2.187,2.187,0,0,1,1.46.09,13.868,13.868,0,0,1,2.66,1.36,7.08,7.08,0,0,0,2.33.97,10.481,10.481,0,0,0,2.89-.17c1.41-.18,2.8-.19,4.19-.27,3.33-.22,6.64-.9,9.96-1.44,4.5-.72,9.02-1.16,13.53-1.8a66.43,66.43,0,0,0,6.71-1.21,74.809,74.809,0,0,0,10.32-3.54c3.66-1.48,7.27-3.04,10.97-4.38,3.57-1.29,7.22-2.37,10.87-3.47,4.96-1.48,9.93-2.97,14.76-4.75,2.3-.84,4.58-1.75,6.99-2.43a10.447,10.447,0,0,0,3.48-1.36,3.324,3.324,0,0,0,1.41-2.25c.09-.93-.29-2.03.27-2.59a1.736,1.736,0,0,1,.84-.4,6.441,6.441,0,0,1,1.75-.07c2.22.1,4.49-.17,6.72.03a10.193,10.193,0,0,1,4.23,1.25,7.928,7.928,0,0,0,2.19,1.14c1.06.21,2.23-.4,3.39-.74a16.929,16.929,0,0,1,3.84-.5c2.41-.15,4.85-.44,7.28-.7,6-.64,11.98-1.13,17.99-1.37,5.26-.21,10.53-.23,15.79-.13,8.39.15,16.75.59,25.15,1.36,7.77.72,15.57,1.72,22.9,4.23a98.747,98.747,0,0,1,9.53,3.97q7.3,3.375,14.44,7.05c5.24,2.71,10.41,5.58,15.43,8.67,4.84,2.98,9.55,6.17,14.26,9.35l12.95.93c13.91,1.01,27.82,2.06,41.67,3.87a206.1,206.1,0,0,1,24.45,4.46,120.2,120.2,0,0,1,17.47,5.84,88.145,88.145,0,0,1,14.98,8.09,26.511,26.511,0,0,1,4.42,3.62,5.8,5.8,0,0,1,1.59,2.53,8.8,8.8,0,0,1,.07,2.3c-.01.42-.01.83,0,1.24a26.594,26.594,0,0,1,.03,3.46,5.941,5.941,0,0,0-.03,2.26,2.986,2.986,0,0,0,.96,1.32,4.809,4.809,0,0,1,1.16,1.07,3.158,3.158,0,0,1,.18,1.47,24.255,24.255,0,0,1-.48,5.59c-.38,1.4-1.07,2.81-.97,4.23a12.654,12.654,0,0,0,.38,1.87,24.311,24.311,0,0,1,.17,5.19c-.04,2.45.18,4.88.37,7.33a5.039,5.039,0,0,0,.67,2.57c1.04,1.54,3.84,2.77,3.43,3.76-.22.51-1.26.95-2.25,1.29-3.87,1.32-6.88.96-10.1.84-4.16-.15-8.68.08-13.08,0-2.68-.05-5.32-.22-7.96-.39a106.054,106.054,0,0,0,.75-12.96,48.147,48.147,0,0,0-2.05-13.11,39.673,39.673,0,0,0-4.92-10.35,29.663,29.663,0,0,0-4.81-5.61,31.935,31.935,0,0,0-10.68-6.07c-.08-.03-.16-.06-.25-.09.38-.14.76-.28,1.13-.42.44-.17.88-.33,1.32-.5s.88-.33,1.33-.48c.56-.19,1.12-.36,1.69-.51a24.38,24.38,0,0,1,2.55-.48c1.15-.17,2.3-.29,3.46-.5a10.1,10.1,0,0,1,1.8-.24,6,6,0,0,1,1.04.08l.63.12a28.888,28.888,0,0,0,3.79,3.13,75.555,75.555,0,0,0,6.82,3.52c1.62.85,3.15,1.85,4.75,2.72a83.764,83.764,0,0,0,8.38,3.73c.73.3,1.46.6,2.18.9.3-.62.59-1.24.86-1.91a3.079,3.079,0,0,1,.85-1.44,1.88,1.88,0,0,1,1.97-.16,2.985,2.985,0,0,1,.91,1.28,8.433,8.433,0,0,0,1.81,2.23c.32.28.64.54.98.8-.02-.12-.03-.23-.04-.34a7.783,7.783,0,0,1,.06-1.22c.02-.21.05-.4.07-.58.01-.16.02-.31.03-.46s.02-.31.02-.46c0-.31,0-.63-.01-.95-.01-.48-.05-.97-.06-1.49-.01-.17-.02-.35-.02-.53V372c.01-.17.01-.33.02-.49s.01-.31.02-.46q.015-.435,0-.78a3.7,3.7,0,0,0-.05-.37c-.02-.08-.04-.16-.07-.25s-.07-.17-.11-.26a4.8,4.8,0,0,0-.33-.56,7.955,7.955,0,0,0-.73-.89c-.06-.06-.12-.13-.19-.2a8.739,8.739,0,0,1-2.31-.31c-1.09-.24-2.18-.41-3.22-.73a32.44,32.44,0,0,1-4.18-1.79,27.613,27.613,0,0,0-7.11-2.4,28.677,28.677,0,0,0-3.59-.33,45.278,45.278,0,0,0-5.94.1c-1.86.16-3.7.49-5.55.83a8.5,8.5,0,0,0-1.88-.18,11.048,11.048,0,0,0-1.27.17c-1.25.22-2.5.37-3.75.55a27.549,27.549,0,0,0-3.37.68c-.82.24-1.62.54-2.42.84-.02.01-.05.02-.07.03l-3.31,1.22a35.1,35.1,0,0,0-11.38-1.73,32.645,32.645,0,0,0-14.68,3.94,35.41,35.41,0,0,0-17.58,23.13,42.241,42.241,0,0,0-1.5,10.38c-2.74-.01-5.48-.01-8.22-.02q-6.585,0-13.16-.02c.04-.61.09-1.21.15-1.82.23-2.18.68-4.33,1.09-6.5a120.333,120.333,0,0,0,1.8-12.67,102.04,102.04,0,0,0,.11-13.99,44.094,44.094,0,0,0-.91-7.34,24.266,24.266,0,0,0-2.45-6.44,26.542,26.542,0,0,0-1.89-2.85,15.851,15.851,0,0,0-2.35-2.61,20.1,20.1,0,0,0-4.78-2.73l-.15-.09c-.18.3-.37.61-.55.91a27.925,27.925,0,0,1,4.94,3.55,17.464,17.464,0,0,1,3.26,4.48,25.819,25.819,0,0,1,2.36,6.7,48.967,48.967,0,0,1,.79,10.69c-.05,4.11-.29,8.19-.69,12.25-.42,4.19-1.01,8.37-1.7,12.52-.33,1.98-.69,3.96-1.04,5.93-24.03-.14-48.06-.99-72.08-1.77q-15.825-.525-31.65-1c-1.37-.04-2.74-.09-4.1-.13-.9-1.63-1.79-3.26-2.6-4.93-1.32-2.69-2.44-5.49-3.51-8.3q-2.145-5.64-4.08-11.34c-1.33-3.97-2.58-7.96-3.79-11.97a40.111,40.111,0,0,1-1.25-4.88,17.028,17.028,0,0,1,.26-7.35,16.244,16.244,0,0,1,2.2-4.67,38.491,38.491,0,0,1,3.38-4.15l-1.33-.36c-.71.72-1.42,1.43-2.11,2.18a18.854,18.854,0,0,0-3.28,4.57,15.447,15.447,0,0,0-1.3,7.64,35.389,35.389,0,0,0,1.69,7.6c.8,2.69,1.61,5.36,2.48,8.02,1.31,3.99,2.78,7.94,4.29,11.87q2.04,5.295,4.22,10.53c.29.7.59,1.4.91,2.08.53,1.16,1.14,2.28,1.75,3.4-7.17-.23-14.34-.46-21.5-.78-7.43-.32-14.86-.72-22.28-1.06l-7.88-.33a42.038,42.038,0,0,0-1.08-6.23,43.27,43.27,0,0,0-6.74-13.44,30.571,30.571,0,0,0-4.68-4.77,31.4,31.4,0,0,0-7.16-4.45,32.192,32.192,0,0,0-11.92-2.68,33.519,33.519,0,0,0-15.22,2.93,31.87,31.87,0,0,0-5.49,3.23q-3.285-.855-6.56-1.72c-3.44-.92-6.87-1.87-10.32-2.78-3.5-.92-7.03-1.8-10.51-2.73-.61-.16-1.21-.33-1.82-.49-1.2-.31-2.41-.61-3.66-.82a12.088,12.088,0,0,1-3.3-.81,7.773,7.773,0,0,1-2.17-1.68c-.57-.57-1.07-1.18-1.58-1.79a32.837,32.837,0,0,0,3.42-2.23c1.49-1.07,2.96-2.17,4.44-3.37a5.735,5.735,0,0,0,1.79-2.03,2.8,2.8,0,0,0,.21-1.66,3.7,3.7,0,0,0-1.16-1.73,12.094,12.094,0,0,0-2.2-1.64,8.851,8.851,0,0,0-2.48-1.13,9.881,9.881,0,0,0-2.55-.11c-2.06.09-4.04.07-6.06.12a11.358,11.358,0,0,0-4.6.82,4.069,4.069,0,0,0-1.4,1.01,2.653,2.653,0,0,0-.32.54,10.883,10.883,0,0,1,.14,1.4,5.384,5.384,0,0,1-.25,1.87,4.928,4.928,0,0,1-.78,1.42,8.17,8.17,0,0,1-.61.71,3.663,3.663,0,0,0-.65.83,2.43,2.43,0,0,0-.14.48,7.206,7.206,0,0,0-.08,1.39c-.01.4-.01.8-.01,1.19,0,.33,0,.66.02,1a2.7,2.7,0,0,0,.14.81,3.323,3.323,0,0,0,.4.63,3.755,3.755,0,0,1,.52.94,4.3,4.3,0,0,1,.16.73,1.086,1.086,0,0,0,.18.01,31.913,31.913,0,0,0,5.7-.07,17.636,17.636,0,0,0,4.8-1.27c.17.21.35.41.52.62.37.44.75.88,1.14,1.3a11.472,11.472,0,0,0,1.54,1.42A8.441,8.441,0,0,0,255.2,364a31.081,31.081,0,0,0,3.46.67c.83.15,1.65.35,2.47.56s1.63.45,2.45.68c3.21.9,6.45,1.68,9.68,2.52,3.28.85,6.55,1.76,9.82,2.64q3.075.825,6.17,1.63a28.92,28.92,0,0,0-3.37,3.27,38.507,38.507,0,0,0-7.52,13.94,39.171,39.171,0,0,0-1.98,11.99c.02,1.75.18,3.5.34,5.25l-5.7-.9c-4.85-.76-9.68-1.51-14.57-2.27-3.74-.58-7.51-1.17-11.12-1.78-3.1-.53-6.09-1.08-8.51-1.6a5.823,5.823,0,0,1-3.81-2.01,16.643,16.643,0,0,1-2.55-5.15,28.8,28.8,0,0,1-.96-8.18A87.934,87.934,0,0,1,229.332,374.98Zm388.56,20.65a2.963,2.963,0,0,0-.15-.67,3.006,3.006,0,0,0-1.32-1.27,6.653,6.653,0,0,0-1.61-.7,1.736,1.736,0,0,0-1.23-.01,1.694,1.694,0,0,0-.6.83c-.42.89-.72,1.65-1.09,2.51-.19.43-.4.89-.58,1.35-.38.99-.81,1.95-1.23,2.93-.43,1.01-.84,2.05-1.21,3.02-.18.47-.35.92-.55,1.48a1.208,1.208,0,0,0-.14.63c.1.4.88.45,1.55.49a9.771,9.771,0,0,0,3.23-.11,5.563,5.563,0,0,0,2.88-1.84,7.78,7.78,0,0,0,1.21-2.76,28.774,28.774,0,0,0,.78-4.08A8.3,8.3,0,0,0,617.891,395.63Zm-105.41-22.25a3.013,3.013,0,0,0,1.74,1.57,13.309,13.309,0,0,0,3.38.63,2.751,2.751,0,0,1,1.88.81,2.117,2.117,0,0,1,.33.97,4.985,4.985,0,0,1-.42,2.27c-.73,2.02-1.67,4.02-2.5,5.79a29.643,29.643,0,0,0-1.32,3.12c-.22.63-.45,1.35-.04,1.66a.963.963,0,0,0,.45.15,1.53,1.53,0,0,0,1.04-.53,8.192,8.192,0,0,0,1.37-1.93c1.03-1.76,2.1-3.56,3.06-5.36s1.81-3.62,2.65-5.58a4.455,4.455,0,0,0,.54-2.28,2.53,2.53,0,0,0-.83-1.53,3.943,3.943,0,0,0-1.87-.68,32.527,32.527,0,0,0-5.86-.47c-1.22,0-2.46.06-3.7.11A3.834,3.834,0,0,0,512.482,373.38Zm-43.11-33.95c1.1.08,2.2.23,3.31.28.77.03,1.54.02,2.3.02,1.06.01,2.08.04,3.25.07a1.312,1.312,0,0,0,.8-.14.766.766,0,0,0,.27-.48.881.881,0,0,0-.23-.87.92.92,0,0,0-.37-.14,10.137,10.137,0,0,0-1.2-.16c-.69-.08-1.4-.17-2.11-.21-1.08-.05-2.16.02-3.24.04-1.02.03-2.05,0-3.08-.04-.84-.02-1.68-.06-2.52-.1-.04.37-.08.72-.14,1.07-.02.11-.04.21-.07.32.2.04.39.08.58.12C467.732,339.35,468.552,339.37,469.372,339.43Zm-80.59,10.83a2.139,2.139,0,0,0,1.15,1.25,4.9,4.9,0,0,0,1.96.43c1.69.1,3.37-.04,5.05-.07,1.13-.02,2.26.01,3.39.03,1.87.05,3.73.1,5.51.1.83.01,1.64,0,2.57-.02.55-.02,1.15-.03,1.46-.44a.886.886,0,0,0,.15-.85.967.967,0,0,0-.41-.39,4.976,4.976,0,0,0-1.3-.49c-1.19-.31-2.34-.53-3.52-.72-2.2-.35-4.47-.62-6.71-.83-1.63-.16-3.25-.29-4.94-.39a6.73,6.73,0,0,0-3.32.35,1.949,1.949,0,0,0-.75.58A1.729,1.729,0,0,0,388.782,350.26Zm1.38-10.12c11.91.44,23.82.88,35.73,1.41q12.36.54,24.72,1.2,8.025.435,16.05.9a8.906,8.906,0,0,1-.83-1.11,4.629,4.629,0,0,1-.66-2.08,19.015,19.015,0,0,1,.46-3.35c.13-1.01.06-2.02.15-3.07a4.722,4.722,0,0,1,.89-2.71,4.632,4.632,0,0,1,1.62-1.11c.37-.17.73-.32,1.1-.47-.14-.09-.29-.18-.44-.27-.94-.56-1.58-.96-2.25-1.36a131.28,131.28,0,0,0-13.27-6.67,102.147,102.147,0,0,0-17.22-6.33,93.684,93.684,0,0,0-14.44-2.19c-5.5-.46-10.99-.66-16.48-.67-5.02,0-10.05.14-15.08.28-3.07.09-6.14.17-9.2.26.51,2.17,1.13,4.32,1.8,6.45,1.73,5.44,3.82,10.77,5.72,16.16Q389.372,337.765,390.161,340.14Zm-76.63-7.71a3.077,3.077,0,0,0,.98,1.36,26.459,26.459,0,0,0,2.51,2.07,9.944,9.944,0,0,0,1.49,1,8.914,8.914,0,0,0,3.13.74c4.14.45,8.18.45,12.26.49,4.6.04,9.23.15,13.86.25,9.11.22,18.2.45,27.28.92,4.33.22,8.65.49,12.98.77-1.23-3.31-2.47-6.63-3.59-9.98-1.2-3.56-2.27-7.17-3.25-10.81-.57-2.09-1.11-4.19-1.64-6.28-6,.58-12,1.17-17.92,2.15a178.314,178.314,0,0,0-27.41,7.07c-5.36,1.79-10.7,3.77-15.58,5.94a28.829,28.829,0,0,0-3.78,1.93,3.073,3.073,0,0,0-1.2,1.08A1.829,1.829,0,0,0,313.531,332.43Zm-3.5,35.16a30.765,30.765,0,1,1-30.77,30.77A30.76,30.76,0,0,1,310.031,367.59Zm-20.41,20.13c.71.15,1.42.31,2.13.47,1.19.27,2.38.55,3.56.88,1.39.39,2.76.87,4.13,1.34-.19-.24-.38-.49-.56-.74-.78-1.07-1.46-2.21-2.16-3.33-.92-1.47-1.89-2.91-2.87-4.35A22.927,22.927,0,0,0,289.622,387.72Zm4.99-6.45c.37.39.74.78,1.08,1.2a25.424,25.424,0,0,1,2.01,3.01,27.519,27.519,0,0,0,4.33,5.66,25.494,25.494,0,0,0,2.09,1.75,12.908,12.908,0,0,0,1.59,1.04c.52.28,1.15.57,1.48.26a.863.863,0,0,0,.23-.42,2.446,2.446,0,0,0,.04-.89c-.04-.55-.05-1.1-.09-1.65a11.823,11.823,0,0,0-.51-2.57,16.85,16.85,0,0,0-1.13-2.49c-.73-1.38-1.5-2.74-2.34-4.05-.99-1.57-2.08-3.07-3.17-4.58A22.946,22.946,0,0,0,294.612,381.27Zm6.75-4.23c.79,1.14,1.59,2.28,2.36,3.43.97,1.44,1.92,2.89,2.86,4.38.15.24.3.48.45.73.09-1.47.18-2.94.36-4.39.14-1.22.34-2.42.55-3.62.12-.72.25-1.44.38-2.16A23.092,23.092,0,0,0,301.362,377.04Zm11.18,2.31c-.14-1.3-.24-2.6-.35-3.9a20.431,20.431,0,0,0-2.21-.1c-.21,1.28-.42,2.57-.66,3.85-.35,1.94-.76,3.88-.93,5.85-.1,1.11-.13,2.23-.15,3.35a20.289,20.289,0,0,1,.3,2.31c.07.7.15,1.38.2,2.13a2.335,2.335,0,0,0,.35,1.42,1.571,1.571,0,0,0,1.65.33,1.547,1.547,0,0,0,.74-.71,5.2,5.2,0,0,0,.46-1.88,13.728,13.728,0,0,1,.77-3.06c.05-.12.09-.23.14-.35.08-1.11.16-2.22.16-3.33C313,383.28,312.742,381.32,312.542,379.35ZM308,398.36a2.03,2.03,0,1,0,2.03-2.04A2.031,2.031,0,0,0,308,398.36Zm5.84-22.7c.07.73.14,1.45.2,2.17.11,1.22.22,2.44.27,3.66.06,1.44.03,2.89.01,4.34.16-.26.34-.51.52-.76.78-1.08,1.65-2.07,2.5-3.08,1.12-1.34,2.18-2.71,3.25-4.08A23.238,23.238,0,0,0,313.841,375.66Zm7.67,2.76c-.26.47-.51.94-.8,1.39a25.615,25.615,0,0,1-2.25,2.85,27.146,27.146,0,0,0-4.04,5.86,23.076,23.076,0,0,0-1.02,2.53,12.351,12.351,0,0,0-.49,1.83c-.11.58-.2,1.27.2,1.49a.939.939,0,0,0,.48.09,2.448,2.448,0,0,0,.85-.24c.51-.2,1.03-.38,1.54-.6a10.922,10.922,0,0,0,2.29-1.28,16.7,16.7,0,0,0,2.02-1.84c1.09-1.12,2.14-2.27,3.13-3.47,1.18-1.43,2.28-2.94,3.37-4.44A22.911,22.911,0,0,0,321.512,378.42Zm6.11,5.1c-.84,1.11-1.68,2.22-2.53,3.31-1.07,1.37-2.16,2.72-3.28,4.07-.18.22-.37.44-.56.66,1.43-.37,2.85-.74,4.29-1.02,1.2-.24,2.41-.42,3.61-.59.73-.11,1.45-.21,2.17-.31A22.885,22.885,0,0,0,327.622,383.52Zm4.27,7.67c-1.28.2-2.57.4-3.86.57-1.96.27-3.93.48-5.85.92-1.09.25-2.16.57-3.23.9a20.225,20.225,0,0,1-2.11,1c-.65.29-1.27.57-1.97.85a2.32,2.32,0,0,0-1.24.77,1.485,1.485,0,0,0,1.11,2.16,5.47,5.47,0,0,0,1.92-.15,13.917,13.917,0,0,1,3.15-.21c.13,0,.25.01.37.02,1.09-.27,2.17-.53,3.23-.88a58.947,58.947,0,0,0,5.47-2.27c1.19-.53,2.4-1.03,3.6-1.54A20.612,20.612,0,0,0,331.892,391.19Zm.9,3.78c-.67.29-1.34.58-2,.86-1.13.48-2.25.96-3.4,1.38-1.36.51-2.74.93-4.13,1.35.3.08.6.17.89.27,1.26.4,2.48.93,3.71,1.42,1.61.65,3.24,1.24,4.87,1.84A22.972,22.972,0,0,0,332.792,394.97Zm-.25,8.15c-.53-.1-1.06-.2-1.58-.34a26.158,26.158,0,0,1-3.4-1.25,27,27,0,0,0-6.82-2.04,23.277,23.277,0,0,0-2.72-.18,11.661,11.661,0,0,0-1.9.09c-.58.08-1.26.21-1.35.66a1.026,1.026,0,0,0,.06.48,2.886,2.886,0,0,0,.49.74c.36.42.69.86,1.05,1.27a10.85,10.85,0,0,0,1.92,1.79,17.877,17.877,0,0,0,2.37,1.35c1.41.69,2.83,1.33,4.28,1.9,1.73.68,3.49,1.26,5.26,1.84A22.952,22.952,0,0,0,332.542,403.12Zm-7.64,12.79a23.019,23.019,0,0,0,4.67-5.41c-1.31-.45-2.63-.91-3.93-1.38-1.63-.6-3.25-1.22-4.88-1.86-.27-.11-.53-.22-.8-.33.79,1.24,1.58,2.48,2.29,3.76.6,1.07,1.15,2.16,1.69,3.26C324.262,414.6,324.582,415.26,324.9,415.91Zm-4.62,3.05c-.48-.55-.96-1.1-1.44-1.64-.8-.92-1.61-1.84-2.36-2.8-.9-1.14-1.73-2.33-2.56-3.51.01.31.02.61.02.92.01,1.33-.12,2.65-.21,3.97-.12,1.73-.18,3.47-.24,5.2A23.069,23.069,0,0,0,320.281,418.96Zm-6.8-11.05c.59.95,1.18,1.9,1.84,2.79a58.765,58.765,0,0,0,3.85,4.51c.87.97,1.72,1.96,2.57,2.95.64-.38,1.26-.78,1.86-1.22-.59-1.17-1.17-2.32-1.74-3.5-.86-1.78-1.67-3.59-2.68-5.28-.58-.96-1.21-1.88-1.85-2.8a21.334,21.334,0,0,1-1.61-1.69c-.47-.53-.93-1.03-1.41-1.61-.33-.4-.66-.84-1.12-.94a1.557,1.557,0,0,0-1.52.7,1.581,1.581,0,0,0-.19,1.02,5.305,5.305,0,0,0,.74,1.78,14.45,14.45,0,0,1,1.17,2.93Zm-1.02,13.33c-.07-.54-.14-1.07-.17-1.61a27.452,27.452,0,0,1,.14-3.62,26.908,26.908,0,0,0-.17-7.11,23.313,23.313,0,0,0-.67-2.65,11.192,11.192,0,0,0-.68-1.78c-.25-.52-.58-1.13-1.04-1.08a1.013,1.013,0,0,0-.43.21,2.505,2.505,0,0,0-.56.7c-.29.46-.6.91-.89,1.38a11.506,11.506,0,0,0-1.1,2.39,16.852,16.852,0,0,0-.55,2.67c-.22,1.55-.39,3.1-.49,4.65-.11,1.85-.12,3.71-.12,5.57A23.016,23.016,0,0,0,312.461,421.24Zm-7.95-.55c.03-1.39.06-2.78.11-4.16.06-1.74.15-3.46.26-5.22.02-.28.04-.57.06-.86-.93,1.14-1.87,2.27-2.87,3.35-.83.89-1.7,1.74-2.57,2.6-.52.51-1.04,1.02-1.56,1.54A23.132,23.132,0,0,0,304.512,420.69Zm-7.96-3.69c.92-.92,1.84-1.83,2.79-2.73,1.43-1.37,2.9-2.7,4.19-4.18.74-.84,1.41-1.74,2.09-2.63a21.311,21.311,0,0,1,1.12-2.05c.35-.61.68-1.2,1.09-1.84a2.356,2.356,0,0,0,.55-1.36,1.583,1.583,0,0,0-1.15-1.23,1.6,1.6,0,0,0-1.01.14,5.15,5.15,0,0,0-1.47,1.25,14.23,14.23,0,0,1-2.43,2.03c-.1.06-.21.13-.31.19-.72.86-1.44,1.71-2.09,2.61a57.946,57.946,0,0,0-3.09,5.06c-.66,1.13-1.34,2.24-2.02,3.36Q295.652,416.355,296.552,417Zm-2.95-2.53c.37-.62.74-1.25,1.12-1.87.62-1.05,1.25-2.1,1.93-3.11.8-1.21,1.67-2.37,2.55-3.52-.29.11-.58.21-.88.3-1.26.42-2.55.71-3.83,1.03-1.69.42-3.36.9-5.03,1.38A23.273,23.273,0,0,0,293.6,414.47Zm-4.58-6.73a16.1,16.1,0,0,1,1.47-.66,25.757,25.757,0,0,1,3.49-.98,27.239,27.239,0,0,0,6.71-2.37,22.7,22.7,0,0,0,2.31-1.45,10.565,10.565,0,0,0,1.48-1.19c.43-.4.9-.91.71-1.33a.991.991,0,0,0-.33-.35,2.835,2.835,0,0,0-.84-.31c-.53-.13-1.05-.29-1.59-.41a11.438,11.438,0,0,0-2.61-.32,16.67,16.67,0,0,0-2.71.31c-1.54.26-3.07.58-4.58.97-1.79.46-3.56,1.03-5.33,1.6A22.585,22.585,0,0,0,289.021,407.74Zm-1.94-7.73c1.33-.4,2.66-.8,3.99-1.18,1.67-.48,3.34-.93,5.04-1.37.28-.07.56-.14.84-.2-1.37-.54-2.74-1.08-4.07-1.7-1.1-.51-2.18-1.08-3.27-1.64-.65-.34-1.29-.67-1.94-1A22.589,22.589,0,0,0,287.082,400.01Zm4.51-6.91c1.74.94,3.46,1.93,5.27,2.7,1.03.44,2.09.81,3.14,1.18a21.679,21.679,0,0,1,2.3.42c.69.15,1.36.29,2.09.48a2.324,2.324,0,0,0,1.46.1,1.573,1.573,0,0,0,.81-1.47,1.534,1.534,0,0,0-.44-.92,5.013,5.013,0,0,0-1.64-1.01,13.946,13.946,0,0,1-2.68-1.69c-.09-.07-.19-.15-.28-.23-1.04-.42-2.07-.84-3.13-1.19-1.88-.6-3.83-.96-5.76-1.37-1.28-.28-2.55-.58-3.82-.88a21.651,21.651,0,0,0-.78,2.08C289.292,391.89,290.442,392.49,291.591,393.1Zm51.96,18.24c-.34,1.6-1.29,3.54-.73,4.52.63,1.14,3.27.99,5.69.88,11.52-.52,18.33-.24,26.17-.01,20.87.63,49.03.99,74.98.86,20.42-.09,39.48-.48,59.02-.57,8.24-.03,16.57-.02,24.89,0-1.06-1.59-2.13-3.17-3.05-4.83a20.688,20.688,0,0,1-2.17-5.61,19.353,19.353,0,0,1-.37-3c-10.64-.18-21.27-.35-31.91-.57-19.04-.41-38.07-.96-57.12-1.31-19.27-.35-38.55-.48-57.81-1.35-8.24-.38-16.47-.89-24.7-1.37q-6.66-.39-13.31-.76c.06.51.11,1.02.16,1.53.24,2.31.5,4.63.55,7.01a28.916,28.916,0,0,1-.13,3.54A9.333,9.333,0,0,1,343.552,411.34Zm219.52-44.48a30.765,30.765,0,1,1-30.77,30.77A30.766,30.766,0,0,1,563.072,366.86Zm-21.9,23.71c1.16.59,2.31,1.19,3.46,1.81,1.74.93,3.46,1.92,5.27,2.7,1.03.43,2.09.8,3.14,1.17a19.435,19.435,0,0,1,2.3.43c.69.15,1.36.28,2.09.47a2.324,2.324,0,0,0,1.46.1,1.563,1.563,0,0,0,.81-1.47,1.592,1.592,0,0,0-.44-.92,5.119,5.119,0,0,0-1.64-1.01,14.408,14.408,0,0,1-2.68-1.68c-.09-.08-.19-.16-.28-.24-1.04-.42-2.07-.84-3.13-1.18a56.772,56.772,0,0,0-5.76-1.38c-1.28-.28-2.55-.58-3.82-.88A19.275,19.275,0,0,0,541.172,390.57Zm1.49-3.58,2.13.48c1.19.27,2.38.54,3.56.87,1.39.4,2.76.87,4.13,1.34-.19-.24-.38-.49-.56-.73-.78-1.08-1.46-2.22-2.16-3.34-.92-1.47-1.9-2.91-2.87-4.35A23.113,23.113,0,0,0,542.661,386.99Zm4.99-6.45c.37.4.74.79,1.08,1.2a25.431,25.431,0,0,1,2.01,3.01,27.254,27.254,0,0,0,4.33,5.66,23.629,23.629,0,0,0,2.09,1.75,11.85,11.85,0,0,0,1.59,1.04c.52.28,1.15.58,1.48.26a.864.864,0,0,0,.23-.42,2.439,2.439,0,0,0,.04-.89c-.04-.55-.05-1.1-.1-1.65a11.238,11.238,0,0,0-.5-2.57,16.843,16.843,0,0,0-1.13-2.49c-.73-1.38-1.5-2.73-2.34-4.05-.99-1.56-2.08-3.07-3.17-4.58A23.236,23.236,0,0,0,547.651,380.54Zm6.75-4.23c.79,1.14,1.59,2.29,2.36,3.44q1.455,2.145,2.85,4.37c.16.24.31.49.46.73.09-1.47.18-2.93.36-4.39.14-1.21.34-2.42.55-3.62.12-.72.25-1.44.38-2.16A23.093,23.093,0,0,0,554.4,376.31Zm11.18,2.31c-.14-1.3-.24-2.6-.35-3.9-.74-.07-1.48-.1-2.22-.1-.2,1.28-.41,2.56-.65,3.85-.35,1.94-.76,3.89-.93,5.85-.1,1.11-.13,2.23-.15,3.35a20.158,20.158,0,0,1,.3,2.32c.07.7.15,1.37.2,2.13a2.371,2.371,0,0,0,.35,1.42,1.482,1.482,0,0,0,2.39-.39,5.143,5.143,0,0,0,.46-1.87,13.953,13.953,0,0,1,.77-3.07c.05-.11.09-.23.14-.34.08-1.12.16-2.23.16-3.34C566.042,382.56,565.781,380.59,565.582,378.62Zm-4.54,19.01a2.03,2.03,0,1,0,2.03-2.03A2.031,2.031,0,0,0,561.042,397.63Zm5.84-22.69c.07.72.14,1.44.2,2.17.11,1.21.22,2.43.27,3.65.06,1.45.03,2.9.01,4.34.16-.25.34-.51.52-.76.78-1.07,1.65-2.07,2.5-3.08,1.12-1.33,2.18-2.7,3.25-4.07A22.656,22.656,0,0,0,566.881,374.94Zm7.67,2.75c-.26.47-.51.95-.8,1.4a26.448,26.448,0,0,1-2.25,2.84,27.393,27.393,0,0,0-4.04,5.86,23.076,23.076,0,0,0-1.02,2.53,13.411,13.411,0,0,0-.5,1.84c-.1.57-.19,1.26.21,1.48a.847.847,0,0,0,.48.09,2.449,2.449,0,0,0,.85-.24c.51-.2,1.03-.38,1.54-.6a11.351,11.351,0,0,0,2.29-1.27,17.561,17.561,0,0,0,2.02-1.84c1.09-1.13,2.14-2.28,3.13-3.48,1.18-1.43,2.27-2.93,3.37-4.43A22.955,22.955,0,0,0,574.552,377.69Zm6.11,5.11c-.84,1.1-1.68,2.21-2.53,3.3-1.07,1.37-2.16,2.72-3.28,4.07-.18.22-.37.44-.56.66,1.43-.37,2.85-.73,4.29-1.02,1.2-.24,2.41-.42,3.61-.59.73-.11,1.45-.21,2.17-.31A22.832,22.832,0,0,0,580.661,382.8Zm4.27,7.67h0c-1.28.19-2.57.39-3.86.57-1.96.26-3.93.47-5.85.92-1.09.24-2.16.57-3.23.89a22.584,22.584,0,0,1-2.11,1.01c-.65.28-1.27.56-1.97.84a2.333,2.333,0,0,0-1.24.78,1.559,1.559,0,0,0,.2,1.66,1.6,1.6,0,0,0,.91.49,5.037,5.037,0,0,0,1.92-.15,13.917,13.917,0,0,1,3.15-.21c.13.01.25.01.37.02,1.09-.26,2.17-.53,3.23-.88a58.939,58.939,0,0,0,5.47-2.27c1.19-.53,2.4-1.03,3.6-1.53A21.813,21.813,0,0,0,584.932,390.47Zm.9,3.77c-.67.29-1.34.58-2,.87-1.13.48-2.25.95-3.4,1.38-1.36.5-2.74.92-4.13,1.35.3.08.6.17.89.26,1.26.41,2.48.93,3.7,1.43,1.62.64,3.25,1.24,4.88,1.83A22.976,22.976,0,0,0,585.832,394.24Zm-.25,8.15c-.53-.1-1.06-.2-1.58-.34a26.157,26.157,0,0,1-3.4-1.25,26.581,26.581,0,0,0-6.82-2.03,21.339,21.339,0,0,0-2.72-.19,12.847,12.847,0,0,0-1.9.09c-.58.08-1.26.21-1.35.66a1.012,1.012,0,0,0,.06.48,2.886,2.886,0,0,0,.49.74c.36.42.69.86,1.05,1.28a11.172,11.172,0,0,0,1.92,1.78,16.279,16.279,0,0,0,2.37,1.35c1.41.69,2.83,1.33,4.28,1.9,1.72.68,3.49,1.26,5.26,1.84A22.955,22.955,0,0,0,585.582,402.39Zm-7.64,12.8a23.022,23.022,0,0,0,4.67-5.41c-1.31-.46-2.63-.92-3.93-1.39-1.63-.59-3.25-1.21-4.88-1.86-.27-.11-.53-.21-.8-.33.79,1.24,1.58,2.48,2.29,3.77.6,1.06,1.15,2.15,1.68,3.25C577.3,413.88,577.622,414.53,577.942,415.19Zm-4.62,3.04c-.48-.55-.96-1.09-1.44-1.64-.8-.92-1.61-1.84-2.36-2.8-.9-1.14-1.73-2.32-2.56-3.51.01.31.02.62.02.93.01,1.32-.12,2.64-.21,3.96-.12,1.73-.18,3.47-.24,5.21A23.088,23.088,0,0,0,573.322,418.23Zm-6.8-11.05c.59.95,1.18,1.9,1.84,2.8a58.592,58.592,0,0,0,3.85,4.5c.87.97,1.72,1.96,2.57,2.95a20.5,20.5,0,0,0,1.86-1.22c-.59-1.16-1.17-2.32-1.74-3.5-.86-1.78-1.67-3.59-2.68-5.28-.58-.96-1.21-1.88-1.85-2.8a21.323,21.323,0,0,1-1.61-1.69c-.47-.53-.93-1.03-1.41-1.61-.33-.4-.66-.84-1.12-.94a1.57,1.57,0,0,0-1.53.71,1.611,1.611,0,0,0-.18,1.01,5.305,5.305,0,0,0,.74,1.78,14.45,14.45,0,0,1,1.17,2.93Zm-1.02,13.33c-.07-.53-.14-1.07-.17-1.61a25.626,25.626,0,0,1,.14-3.61,27.418,27.418,0,0,0-.17-7.12,23.326,23.326,0,0,0-.67-2.65,11.488,11.488,0,0,0-.68-1.77c-.25-.53-.58-1.14-1.04-1.08a.888.888,0,0,0-.43.2,2.658,2.658,0,0,0-.56.7c-.29.46-.6.92-.89,1.39a11.671,11.671,0,0,0-1.1,2.38,17.086,17.086,0,0,0-.55,2.67c-.22,1.55-.39,3.1-.49,4.65-.11,1.86-.12,3.71-.12,5.57A22.681,22.681,0,0,0,565.5,420.51Zm-7.95-.54c.03-1.39.06-2.78.11-4.17.06-1.73.15-3.46.26-5.21.02-.29.04-.58.06-.86-.93,1.13-1.87,2.26-2.87,3.34-.83.89-1.7,1.75-2.57,2.6-.52.51-1.04,1.03-1.56,1.54A23.157,23.157,0,0,0,557.552,419.97Zm-7.97-3.69h0c.93-.93,1.85-1.83,2.8-2.74,1.42-1.36,2.9-2.69,4.19-4.18.74-.84,1.41-1.73,2.09-2.62a18.538,18.538,0,0,1,1.12-2.06c.35-.61.68-1.2,1.09-1.84a2.329,2.329,0,0,0,.55-1.35,1.57,1.57,0,0,0-1.15-1.23,1.538,1.538,0,0,0-1.01.14,4.962,4.962,0,0,0-1.47,1.24,13.784,13.784,0,0,1-2.43,2.03c-.1.07-.21.13-.31.2-.72.85-1.44,1.7-2.09,2.6a57.931,57.931,0,0,0-3.09,5.06c-.66,1.13-1.34,2.24-2.02,3.36C548.411,415.38,548.982,415.83,549.582,416.28Zm-2.94-2.54c.37-.62.74-1.25,1.12-1.87.62-1.05,1.25-2.1,1.93-3.11.8-1.21,1.67-2.36,2.55-3.52-.29.11-.58.21-.88.31-1.26.41-2.55.7-3.83,1.02-1.69.42-3.36.9-5.03,1.38A23.092,23.092,0,0,0,546.641,413.74Zm-4.58-6.73c.48-.23.97-.46,1.47-.66a25.76,25.76,0,0,1,3.49-.98,27.626,27.626,0,0,0,6.71-2.36,24.6,24.6,0,0,0,2.31-1.45,12.2,12.2,0,0,0,1.48-1.2c.43-.4.9-.91.71-1.32a.85.85,0,0,0-.33-.35,2.374,2.374,0,0,0-.84-.31c-.53-.14-1.05-.3-1.59-.42a10.957,10.957,0,0,0-2.61-.31,15.614,15.614,0,0,0-2.71.3c-1.54.27-3.07.58-4.58.97-1.79.47-3.56,1.04-5.33,1.61A22.6,22.6,0,0,0,542.062,407.01Zm2.05-8.91c1.67-.48,3.34-.93,5.04-1.36.28-.07.56-.15.84-.21-1.37-.54-2.74-1.08-4.07-1.7-1.1-.51-2.18-1.08-3.27-1.64-.65-.33-1.29-.66-1.94-.99a22.54,22.54,0,0,0-.59,7.09C541.452,398.88,542.781,398.48,544.112,398.1Z" transform="translate(-229.219 -305.552)" fill="#c70006"/>
</svg>
