<svg xmlns="http://www.w3.org/2000/svg" width="476.009" height="959.992" viewBox="0 0 476.009 959.992">
  <path id="path2853" d="M610.52,493.69a24.556,24.556,0,0,0-6.469.938l-3.5,1.5,8.656,35.844-124.81.281c-77.963.165-166.52-11.5-232.93-9.5s-152.12,28-152.12,28L85.66,554.534c-19.251,5.3-25.718,97.367-25.718,166.78,0,1.113.027,2.253.031,3.375s-.031,2.262-.031,3.375c0,69.414,6.467,161.48,25.718,166.78l13.687,3.781s85.711,26,152.12,28,154.97-9.665,232.93-9.5l124.81.281-8.656,35.844,3.5,1.5a24.55,24.55,0,0,0,6.469.938,14.135,14.135,0,0,0,2.688-.25c.311-.058.624-.141.938-.219s.633-.157.938-.25a17.949,17.949,0,0,0,1.875-.687,14.008,14.008,0,0,0,4.78-3.282l.031-.031a8.316,8.316,0,0,0,1.469-2.281l12.156-31.25,109.94.25c23.9,11.942,45.511,10.719,73.593,10.719,133.25,0,187.63-86.586,187-201.38,0-.78-.019-1.566-.031-2.344.012-.778.031-1.564.031-2.344.628-114.79-53.749-201.38-187-201.38-28.082,0-49.693-1.224-73.593,10.719l-109.94.25-12.156-31.25a8.316,8.316,0,0,0-1.469-2.281l-.031-.031a14.007,14.007,0,0,0-4.781-3.281,17.935,17.935,0,0,0-1.875-.687c-.3-.093-.633-.175-.937-.25s-.627-.16-.937-.219a14.133,14.133,0,0,0-2.687-.25Z" transform="translate(-486.679 1012.934) rotate(-90)" fill="#c90000" stroke="#000" stroke-width="14"/>
</svg>
